<svg width="50" height="50" viewBox="0 0 50 50" fill="none" xmlns="http://www.w3.org/2000/svg">
<path d="M28.125 40.625C28.125 44.0781 24.625 46.875 20.3125 46.875C16 46.875 12.5 44.0781 12.5 40.625C12.5 37.1719 16 34.375 20.3125 34.375C24.625 34.375 28.125 37.1719 28.125 40.625Z" fill="black"/>
<path fill-rule="evenodd" clip-rule="evenodd" d="M28.125 9.375V40.625H25V9.375H28.125Z" fill="black"/>
<path d="M25 8.8125C25.0004 8.09034 25.251 7.39062 25.709 6.8323C26.1671 6.27399 26.8043 5.89155 27.5125 5.75001L36.8875 3.87501C37.3407 3.78442 37.8083 3.79549 38.2567 3.9074C38.7052 4.01932 39.1232 4.2293 39.4806 4.52222C39.8381 4.81513 40.1262 5.1837 40.3241 5.60135C40.5219 6.019 40.6247 6.47535 40.625 6.93751V12.5L25 15.625V8.8125Z" fill="black"/>
</svg>
