<svg width="50" height="50" viewBox="0 0 50 50" fill="none" xmlns="http://www.w3.org/2000/svg">
<path d="M20.9906 11.0937C21.2554 11.2213 21.4788 11.4209 21.6352 11.6696C21.7916 11.9183 21.8747 12.2062 21.875 12.5V37.5C21.8746 37.794 21.7912 38.0819 21.6345 38.3307C21.4778 38.5795 21.254 38.7789 20.989 38.9062C20.724 39.0335 20.4284 39.0835 20.1362 39.0503C19.8441 39.0171 19.5673 38.9022 19.3375 38.7187L11.9531 32.8125H4.6875C4.2731 32.8125 3.87567 32.6479 3.58265 32.3549C3.28962 32.0618 3.125 31.6644 3.125 31.25V18.75C3.125 18.3356 3.28962 17.9382 3.58265 17.6451C3.87567 17.3521 4.2731 17.1875 4.6875 17.1875H11.9531L19.3375 11.2812C19.5674 11.0975 19.8446 10.9824 20.137 10.9492C20.4295 10.916 20.7254 10.9661 20.9906 11.0937V11.0937ZM18.75 15.75L13.475 19.9687C13.1984 20.1906 12.8546 20.3119 12.5 20.3125H6.25V29.6875H12.5C12.8546 29.6881 13.1984 29.8094 13.475 30.0312L18.75 34.25V15.75ZM43.2938 17.6437C43.4393 17.7889 43.5547 17.9613 43.6335 18.1511C43.7122 18.341 43.7528 18.5445 43.7528 18.75C43.7528 18.9555 43.7122 19.159 43.6335 19.3489C43.5547 19.5387 43.4393 19.7111 43.2938 19.8562L38.1469 25L43.2938 30.1437C43.5871 30.4371 43.752 30.8351 43.752 31.25C43.752 31.6649 43.5871 32.0629 43.2938 32.3562C43.0004 32.6496 42.6024 32.8145 42.1875 32.8145C41.7726 32.8145 41.3746 32.6496 41.0812 32.3562L35.9375 27.2094L30.7938 32.3562C30.5004 32.6496 30.1024 32.8145 29.6875 32.8145C29.2726 32.8145 28.8746 32.6496 28.5812 32.3562C28.2879 32.0629 28.123 31.6649 28.123 31.25C28.123 30.8351 28.2879 30.4371 28.5812 30.1437L33.7281 25L28.5812 19.8562C28.436 19.711 28.3207 19.5385 28.2421 19.3487C28.1635 19.1589 28.123 18.9554 28.123 18.75C28.123 18.5445 28.1635 18.3411 28.2421 18.1513C28.3207 17.9615 28.436 17.789 28.5812 17.6437C28.8746 17.3504 29.2726 17.1855 29.6875 17.1855C29.8929 17.1855 30.0964 17.226 30.2862 17.3046C30.476 17.3832 30.6485 17.4985 30.7938 17.6437L35.9375 22.7906L41.0812 17.6437C41.2264 17.4982 41.3988 17.3828 41.5886 17.304C41.7785 17.2253 41.982 17.1847 42.1875 17.1847C42.393 17.1847 42.5965 17.2253 42.7864 17.304C42.9762 17.3828 43.1486 17.4982 43.2938 17.6437V17.6437Z" fill="black"/>
</svg>
