<svg width="50" height="50" viewBox="0 0 50 50" fill="none" xmlns="http://www.w3.org/2000/svg">
<path d="M36.05 43.7813C38.5204 41.3177 40.4795 38.3903 41.8149 35.1672C43.1503 31.944 43.8355 28.4888 43.8312 25C43.8355 21.5112 43.1503 18.056 41.8149 14.8328C40.4795 11.6097 38.5204 8.68228 36.05 6.21875L33.8375 8.42813C36.0172 10.6018 37.7459 13.1849 38.9242 16.0289C40.1024 18.8728 40.707 21.9216 40.7031 25C40.7031 31.4719 38.0781 37.3313 33.8375 41.5719L36.05 43.7813V43.7813Z" fill="black"/>
<path d="M31.6281 39.3625C33.5171 37.4785 35.0152 35.2398 36.0363 32.775C37.0574 30.3102 37.5814 27.6679 37.5781 25C37.5814 22.3321 37.0574 19.6898 36.0363 17.225C35.0152 14.7602 33.5171 12.5215 31.6281 10.6375L29.4187 12.8469C31.0171 14.4411 32.2847 16.3354 33.1487 18.4211C34.0126 20.5067 34.456 22.7425 34.4531 25C34.4568 27.2578 34.0142 29.4941 33.1507 31.5803C32.2873 33.6664 31.0201 35.5614 29.4219 37.1562L31.6281 39.3625Z" fill="black"/>
<path d="M31.3281 25C31.3305 26.8471 30.9679 28.6764 30.2611 30.3829C29.5542 32.0894 28.5171 33.6394 27.2094 34.9438L25 32.7344C26.0171 31.7198 26.8237 30.5142 27.3734 29.1869C27.9231 27.8595 28.2051 26.4367 28.2031 25C28.2031 21.9813 26.9781 19.2469 25 17.2656L27.2094 15.0563C28.5171 16.3607 29.5542 17.9106 30.2611 19.6171C30.9679 21.3236 31.3305 23.1529 31.3281 25V25ZM21.875 12.5C21.8746 12.206 21.7912 11.9181 21.6345 11.6693C21.4778 11.4205 21.254 11.2211 20.989 11.0938C20.724 10.9665 20.4284 10.9165 20.1362 10.9497C19.8441 10.9829 19.5673 11.0978 19.3375 11.2813L11.9531 17.1875H4.6875C4.2731 17.1875 3.87567 17.3521 3.58265 17.6452C3.28962 17.9382 3.125 18.3356 3.125 18.75V31.25C3.125 31.6644 3.28962 32.0618 3.58265 32.3549C3.87567 32.6479 4.2731 32.8125 4.6875 32.8125H11.9531L19.3375 38.7188C19.5673 38.9022 19.8441 39.0171 20.1362 39.0503C20.4284 39.0835 20.724 39.0335 20.989 38.9062C21.254 38.779 21.4778 38.5795 21.6345 38.3307C21.7912 38.082 21.8746 37.794 21.875 37.5V12.5ZM13.475 19.9688L18.75 15.75V34.25L13.475 30.0313C13.1984 29.8094 12.8546 29.6881 12.5 29.6875H6.25V20.3125H12.5C12.8546 20.3119 13.1984 20.1907 13.475 19.9688V19.9688Z" fill="black"/>
</svg>
