<svg width="50" height="50" viewBox="0 0 50 50" fill="none" xmlns="http://www.w3.org/2000/svg">
<path d="M14.5187 14.5187C14.6639 14.3732 14.8363 14.2578 15.0261 14.179C15.216 14.1003 15.4195 14.0597 15.625 14.0597C15.8305 14.0597 16.034 14.1003 16.2239 14.179C16.4137 14.2578 16.5861 14.3732 16.7313 14.5187L25 22.7906L33.2687 14.5187C33.414 14.3735 33.5865 14.2582 33.7763 14.1796C33.9661 14.101 34.1696 14.0605 34.375 14.0605C34.5804 14.0605 34.7839 14.101 34.9737 14.1796C35.1635 14.2582 35.336 14.3735 35.4813 14.5187C35.6265 14.664 35.7418 14.8365 35.8204 15.0263C35.899 15.2161 35.9395 15.4196 35.9395 15.625C35.9395 15.8304 35.899 16.0339 35.8204 16.2237C35.7418 16.4135 35.6265 16.586 35.4813 16.7313L27.2094 25L35.4813 33.2687C35.6265 33.414 35.7418 33.5865 35.8204 33.7763C35.899 33.9661 35.9395 34.1696 35.9395 34.375C35.9395 34.5804 35.899 34.7839 35.8204 34.9737C35.7418 35.1635 35.6265 35.336 35.4813 35.4813C35.336 35.6265 35.1635 35.7418 34.9737 35.8204C34.7839 35.899 34.5804 35.9395 34.375 35.9395C34.1696 35.9395 33.9661 35.899 33.7763 35.8204C33.5865 35.7418 33.414 35.6265 33.2687 35.4813L25 27.2094L16.7313 35.4813C16.586 35.6265 16.4135 35.7418 16.2237 35.8204C16.0339 35.899 15.8304 35.9395 15.625 35.9395C15.4196 35.9395 15.2161 35.899 15.0263 35.8204C14.8365 35.7418 14.664 35.6265 14.5187 35.4813C14.3735 35.336 14.2582 35.1635 14.1796 34.9737C14.101 34.7839 14.0605 34.5804 14.0605 34.375C14.0605 34.1696 14.101 33.9661 14.1796 33.7763C14.2582 33.5865 14.3735 33.414 14.5187 33.2687L22.7906 25L14.5187 16.7313C14.3732 16.5861 14.2578 16.4137 14.179 16.2239C14.1003 16.034 14.0597 15.8305 14.0597 15.625C14.0597 15.4195 14.1003 15.216 14.179 15.0261C14.2578 14.8363 14.3732 14.6639 14.5187 14.5187Z" fill="black"/>
</svg>
