<svg width="96" height="34" viewBox="0 0 96 34" fill="none" xmlns="http://www.w3.org/2000/svg">
<path d="M47.8151 10.4993L52.3802 10.2169C52.4798 10.9483 52.6812 11.505 52.9845 11.8873C53.48 12.5068 54.1861 12.8165 55.103 12.8165C55.7871 12.8165 56.315 12.6585 56.6866 12.3425C56.8568 12.2113 56.995 12.0442 57.0912 11.8535C57.1873 11.6628 57.239 11.4533 57.2423 11.2403C57.2395 11.0362 57.1914 10.8352 57.1014 10.6513C57.0114 10.4674 56.8817 10.3051 56.7214 10.1759C56.3741 9.86326 55.555 9.56719 54.2643 9.28766C52.1597 8.82217 50.6588 8.20265 49.7616 7.4291C49.3251 7.0687 48.9764 6.61601 48.7417 6.10465C48.5069 5.59329 48.392 5.03638 48.4055 4.47526C48.4088 3.6823 48.6505 2.9081 49.1 2.25047C49.6135 1.50925 50.3387 0.935046 51.1838 0.600695C52.1099 0.200232 53.3833 0 55.004 0C56.9882 0 58.5012 0.363954 59.5431 1.09186C60.585 1.81977 61.2049 2.97666 61.4028 4.56254L56.8794 4.82267C56.7636 4.13812 56.5112 3.63725 56.1223 3.32008C55.7333 3.0029 55.2008 2.84489 54.5247 2.84603C53.9673 2.84603 53.5471 2.96411 53.2658 3.19686C53.1329 3.29756 53.0255 3.42722 52.952 3.57568C52.8785 3.72414 52.8409 3.88736 52.8421 4.05255C52.8463 4.18074 52.8797 4.30635 52.9398 4.4201C53 4.53386 53.0852 4.63283 53.1894 4.70972C53.4151 4.91166 53.9517 5.09991 54.7991 5.27448C56.8967 5.71943 58.4017 6.1701 59.3139 6.62647C60.2261 7.08283 60.886 7.64816 61.2934 8.32244C61.7093 9.00645 61.9239 9.79098 61.9134 10.5883C61.9184 11.5538 61.6312 12.4988 61.0885 13.3026C60.5238 14.1406 59.7203 14.7956 58.7791 15.1851C57.7893 15.6129 56.5425 15.8268 55.0387 15.8268C52.3982 15.8268 50.5691 15.326 49.5515 14.3243C48.534 13.3225 47.9551 12.0476 47.8151 10.4993ZM1.08876 15.5701V0.258419H9.08688C10.5698 0.258419 11.7031 0.383349 12.4869 0.633211C13.2588 0.876222 13.9263 1.36655 14.3831 2.02627C14.8803 2.75853 15.1334 3.62536 15.1072 4.50607C15.1273 5.27462 14.9352 6.03413 14.5515 6.70348C14.1833 7.32398 13.6618 7.84263 13.0356 8.2112C12.5091 8.4974 11.941 8.70175 11.3512 8.81703C11.7925 8.94511 12.2129 9.13471 12.5997 9.38008C12.8872 9.61558 13.1459 9.88321 13.3707 10.1776C13.6236 10.4701 13.8475 10.7859 14.0393 11.1206L16.3626 15.5701H10.9397L8.37667 10.8861C8.05137 10.2803 7.76196 9.88665 7.50844 9.70524C7.16297 9.46928 6.7514 9.34544 6.33112 9.35098H5.90395V15.5701H1.08876ZM5.90395 6.45875H7.93213C8.36136 6.42717 8.7868 6.35728 9.20322 6.24996C9.5144 6.19112 9.79194 6.01955 9.98115 5.76906C10.1812 5.51604 10.2878 5.20334 10.2833 4.88257C10.2964 4.66962 10.2602 4.45652 10.1774 4.25937C10.0947 4.06222 9.96762 3.88617 9.80577 3.7445C9.48858 3.47981 8.89182 3.34746 8.01548 3.34746H5.90395V6.45875ZM0 28.6725L4.56514 28.3918C4.6647 29.1231 4.86613 29.6799 5.16943 30.0621C5.65911 30.6816 6.36701 30.9914 7.29312 30.9914C7.97728 30.9914 8.50516 30.8328 8.87677 30.5156C9.04694 30.3844 9.18517 30.2173 9.28132 30.0266C9.37747 29.8359 9.4291 29.6264 9.43243 29.4135C9.42937 29.2094 9.38118 29.0084 9.29121 28.8246C9.20123 28.6407 9.07165 28.4784 8.9115 28.349C8.5642 28.0364 7.74517 27.7409 6.45441 27.4625C4.34982 26.9948 2.84895 26.3752 1.95178 25.604C1.51525 25.2431 1.1667 24.7901 0.93194 24.2785C0.69718 23.7669 0.582229 23.2098 0.595605 22.6484C0.599448 21.8555 0.841108 21.0815 1.29019 20.4236C1.80362 19.6824 2.52887 19.1082 3.37394 18.7738C4.30005 18.3734 5.57345 18.1732 7.19414 18.1732C9.17833 18.1732 10.6914 18.5371 11.7332 19.265C12.7751 19.9929 13.395 21.1498 13.593 22.7357L9.07819 22.9975C8.96243 22.313 8.71007 21.8115 8.3211 21.4932C7.93213 21.1749 7.4002 21.0186 6.7253 21.0243C6.16847 21.0243 5.74883 21.1384 5.46637 21.3666C5.33349 21.4673 5.22609 21.5969 5.15258 21.7454C5.07907 21.8939 5.04145 22.0571 5.04267 22.2223C5.04663 22.3508 5.0799 22.4767 5.14003 22.5908C5.20015 22.7048 5.28558 22.8041 5.38996 22.8812C5.6157 23.0831 6.15227 23.2708 6.99966 23.4442C9.0973 23.8892 10.6022 24.3398 11.5144 24.7962C12.4267 25.2526 13.0865 25.8179 13.494 26.4922C13.9096 27.1763 14.1242 27.9607 14.1139 28.758C14.1191 29.7235 13.8319 30.6686 13.2891 31.4723C12.7243 32.3104 11.9208 32.9653 10.9796 33.3548C9.98983 33.7827 8.74306 33.9966 7.23929 33.9966C4.59872 33.9966 2.76965 33.4957 1.75208 32.494C0.734521 31.4923 0.150493 30.2184 0 28.6725ZM28.3042 27.4728L32.5099 28.7255C32.2773 29.7771 31.8223 30.7684 31.1746 31.6349C30.5844 32.4005 29.8081 33.0073 28.9172 33.3993C28.0166 33.7952 26.8705 33.9932 25.479 33.9932C23.7912 33.9932 22.4124 33.7519 21.3428 33.2692C20.2731 32.7866 19.347 31.9361 18.5645 30.7176C17.7865 29.5002 17.3981 27.9423 17.3993 26.0438C17.3993 23.5132 18.0823 21.5674 19.4483 20.2063C20.8143 18.8452 22.7476 18.1652 25.2481 18.1663C27.2056 18.1663 28.7436 18.5565 29.8618 19.3369C30.9801 20.1173 31.8113 21.3152 32.3554 22.9308L28.1184 23.8601C28.019 23.4958 27.8619 23.1493 27.6531 22.8332C27.3965 22.4821 27.059 22.1959 26.6685 21.9981C26.2637 21.7993 25.8166 21.699 25.3644 21.7054C24.2774 21.7054 23.4445 22.1367 22.8657 22.9992C22.4258 23.6393 22.2064 24.6439 22.2075 26.013C22.2075 27.7084 22.4692 28.871 22.9924 29.5008C23.5157 30.1306 24.2502 30.4449 25.196 30.4438C26.1128 30.4438 26.8074 30.1899 27.2797 29.6822C27.7521 29.1745 28.0936 28.438 28.3042 27.4728ZM36.2069 18.4316H41.0047V23.7848H46.2488V18.4316H51.0675V33.7364H46.2488V27.5498H41.0047V33.7416H36.2069V18.4316ZM54.0542 26.0934C54.0542 23.5971 54.7603 21.6518 56.1726 20.2576C57.5849 18.8634 59.5529 18.1674 62.0766 18.1697C64.6604 18.1697 66.6516 18.8543 68.05 20.2234C69.4484 21.5925 70.1494 23.5075 70.1528 25.9685C70.1528 27.7586 69.8472 29.2258 69.236 30.3702C68.6412 31.4994 67.7195 32.4292 66.5879 33.0416C65.4303 33.6783 63.9913 33.9966 62.2711 33.9966C60.5207 33.9966 59.0737 33.7216 57.9299 33.1717C56.7549 32.5978 55.7825 31.6883 55.1394 30.5618C54.4148 29.373 54.053 27.8835 54.0542 26.0934ZM58.852 26.1157C58.852 27.6616 59.1414 28.7717 59.7202 29.446C60.299 30.1203 61.092 30.4574 62.0992 30.4574C63.1306 30.4574 63.9288 30.1271 64.4937 29.4666C65.0587 28.806 65.3411 27.6194 65.3411 25.9069C65.3411 24.4659 65.0459 23.4128 64.4555 22.7477C63.8651 22.0825 63.0652 21.7505 62.0557 21.7516C61.6168 21.7361 61.18 21.8185 60.778 21.9928C60.376 22.167 60.0191 22.4286 59.7341 22.7579C59.1472 23.4425 58.8531 24.5617 58.852 26.1157Z" fill="black"/>
<path d="M68.1177 26.0934C68.1177 23.5971 68.8239 21.6518 70.2362 20.2576C71.6485 18.8634 73.6165 18.1675 76.1402 18.1697C78.7263 18.1697 80.718 18.8543 82.1153 20.2234C83.5126 21.5925 84.2112 23.5081 84.2112 25.9702C84.2112 27.7603 83.9062 29.2275 83.2961 30.3719C82.7008 31.5008 81.7793 32.4305 80.648 33.0434C79.4904 33.68 78.0514 33.9983 76.3312 33.9983C74.5797 33.9983 73.1326 33.7233 71.99 33.1734C70.8148 32.5991 69.842 31.6898 69.1978 30.5636C68.4778 29.3736 68.1177 27.8835 68.1177 26.0934ZM72.9173 26.1157C72.9173 27.6616 73.2067 28.7717 73.7855 29.446C74.3644 30.1203 75.1585 30.458 76.168 30.4592C77.1994 30.4592 77.9976 30.1289 78.5625 29.4683C79.1274 28.8077 79.4099 27.6211 79.4099 25.9086C79.4099 24.4676 79.1153 23.4146 78.5261 22.7494C77.9368 22.0842 77.1369 21.7522 76.1263 21.7534C75.6866 21.7367 75.2489 21.8184 74.8458 21.9924C74.4428 22.1664 74.0851 22.4281 73.7994 22.758C73.2102 23.4425 72.9161 24.5617 72.9173 26.1157Z" fill="black"/>
<path d="M83.7111 18.4316H88.5107V29.968H96V33.733H83.7111V18.4316Z" fill="black"/>
</svg>
